<svg id="Layer_1" data-name="Layer 1" xmlns="http://www.w3.org/2000/svg" viewBox="0 0 1920 1080"><defs><style>.cls-1{fill:#212121;}.cls-2{fill:#335ce2;}</style></defs><title>account-bg-dark</title><rect class="cls-1" width="1920" height="1080"/><path class="cls-2" d="M786.84,1896.58c-207.82-28.74-128.82-259-310.51-363.9s-264.69,38.86-446.38-66S-68.74,1218-250.44,1113.08s-264.69,38.86-446.38-66S-824.39,880-953.19,714.4c-52.37-67.33-94.75-64.41-52.1-138.28s186.41,9.13,229.06-64.74S-877.34,354.51-834.7,280.64s186.42,9.12,229.07-64.75S-665.34-67.26-580.84-55.58C-373-26.84-452,203.42-270.33,308.32s264.69-38.86,446.38,66S274.74,623,456.44,727.92s264.69-38.86,446.38,66,127.57,167,256.37,332.64c52.37,67.33,94.75,64.41,52.1,138.28s-186.41-9.13-229.06,64.74,101.11,156.87,58.47,230.74-217,3.35-237.7,86.1C770.33,1777,871.34,1908.26,786.84,1896.58Z"/></svg>