<svg id="Layer_1" data-name="Layer 1" xmlns="http://www.w3.org/2000/svg" xmlns:xlink="http://www.w3.org/1999/xlink" viewBox="0 0 618.87 617.38"><defs><style>.cls-1{fill:#fff;}.cls-2{fill:url(#linear-gradient);}.cls-3{fill:url(#linear-gradient-8);}.cls-4{fill:url(#linear-gradient-9);}</style><linearGradient id="linear-gradient" x1="363.28" y1="405.73" x2="667.23" y2="405.73" gradientUnits="userSpaceOnUse"><stop offset="0" stop-color="#2e3192"/><stop offset="1" stop-color="#ed1e79"/></linearGradient><linearGradient id="linear-gradient-8" x1="166.67" y1="375.31" x2="327.37" y2="375.31" gradientTransform="translate(190.56 -16.49)" xlink:href="#linear-gradient"/><linearGradient id="linear-gradient-9" x1="166.67" y1="543.49" x2="327.37" y2="543.49" gradientTransform="translate(309.48 -65.74)" xlink:href="#linear-gradient"/></defs><title>icon</title><path class="cls-1" d="M762.76,304.91c-12-12.08-29.13-7.08-29.13-7.08l0,0c-19.79,4.19-53.41,5.25-81-24.35l-2.07-2.1c-34.25-34.38-32-71.75-27.25-91.61,1.9-13.93-3.18-21.84-5.87-24.93l-5.28-5.3c-10.89-10.94-23.35-.39-26.62,2.75L558.6,179.06l-19.86,19.79-266.09,265-7.23,7.2-33.12,33c-10.52,10.47-2.7,19.58-2.7,19.58l15.63,15.69a17.31,17.31,0,0,0,16.68,3.36h0c17.78-6.84,58.37-16.53,93.53,18.8l6.87,6.89c28.9,28.42,21.43,65.44,14.59,84.77a.08.08,0,0,0,0,.08,25.86,25.86,0,0,0,4.65,23.18l11.32,11.35s10.43,11.19,24.85-3.19L448,654.41l13.41-13.34L735.94,367.6l5.23-5.22,27.59-27.45c4-4.84,8.87-14.64-3.34-27.36Z" transform="translate(-193.27 -109.6)"/><path class="cls-1" d="M767.69,273.14c-13.85-13.89-35.15-2.56-35.15-2.56l-.06,0a61,61,0,0,1-79.68-80.1,4.76,4.76,0,0,1,.19-.57c8-21.2-3.4-35.13-6.76-38.65l-34.52-34.68c-15.09-15.14-31.45-1.37-35.46,2.47L203.52,490.28c-20.71,20.59-3.63,37-3.63,37l40,40.16s9.87,10.67,29,2.94c.62-.24,1.07-.35,1.62-.52a60.87,60.87,0,0,1,82.77,78.2h0s-11.61,21.59,2.38,35.63l35,35.17c2.51,2.45,20.9,19,43.89-3.87L804.88,346.18c5.62-6.5,14.32-21.31-2.83-38.54Zm-7.19,66.14L733.67,366l-5.09,5.08-267,266-13,13-29.46,29.34c-14,14-24.17,3.1-24.17,3.1l-11-11a25.17,25.17,0,0,1-4.52-22.55.07.07,0,0,1,0-.07c6.65-18.8,13.92-54.8-14.19-82.44l-6.68-6.7c-34.19-34.36-73.67-24.94-91-18.28h0a16.84,16.84,0,0,1-16.22-3.27l-15.2-15.26s-7.61-8.86,2.62-19L271,471.7l7-7L536.8,207l19.31-19.25,26.18-26.07c3.17-3.06,15.29-13.32,25.88-2.67l5.13,5.15c2.63,3,7.57,10.7,5.72,24.24-4.58,19.32-6.81,55.66,26.49,89.09l2,2.05c26.83,28.79,59.52,27.75,78.77,23.68l0,0s16.65-4.86,28.34,6.89l2.58,2.58C769.12,325.05,764.43,334.58,760.5,339.28Z" transform="translate(-193.27 -109.6)"/><path class="cls-2" d="M387.59,497.22l11.05,13,15.58-15.57a3.63,3.63,0,0,1,2.39-1.25,2.82,2.82,0,0,1,2.18.92q2.44,2.46-.27,5.17l-15.63,15.63,13.56,16a4.23,4.23,0,0,1,1.09,2.89,4.12,4.12,0,0,1-1.31,2.78,3.72,3.72,0,0,1-2.75,1.22,3.8,3.8,0,0,1-2.75-1.39l-30.49-35.82a3.84,3.84,0,0,1-1.17-2.81,4.22,4.22,0,0,1,1.39-2.75L400,475.66a3.57,3.57,0,0,1,2.42-1.23,3,3,0,0,1,2.26,1q2.34,2.34-.38,5.06Z" transform="translate(-193.27 -109.6)"/><path class="cls-2" d="M443.73,507.29a3.7,3.7,0,0,1-2.62-1.52L410.57,470a3.8,3.8,0,0,1-1.09-2.89,4.31,4.31,0,0,1,1.36-2.83,3.69,3.69,0,0,1,2.78-1.25,3.59,3.59,0,0,1,2.66,1.47L445,498.09l16.5-16.5a3.67,3.67,0,0,1,2.39-1.25,2.89,2.89,0,0,1,2.23,1q2.5,2.51-.21,5.23L446.45,506A3.69,3.69,0,0,1,443.73,507.29Z" transform="translate(-193.27 -109.6)"/><path class="cls-2" d="M473.81,477.65a3.58,3.58,0,0,1-2.7-1.45l-30.76-36a3.84,3.84,0,0,1-1.12-2.86,4.23,4.23,0,0,1,1.34-2.8,3.81,3.81,0,0,1,2.8-1.28,3.6,3.6,0,0,1,2.7,1.44l30.76,36a3.78,3.78,0,0,1,1.09,2.89,4.35,4.35,0,0,1-1.36,2.83A3.75,3.75,0,0,1,473.81,477.65Z" transform="translate(-193.27 -109.6)"/><path class="cls-2" d="M478.35,396.65a3.56,3.56,0,0,1,2.54-1,3.35,3.35,0,0,1,2.53,1,3.63,3.63,0,0,1,1,2.56l2.13,27.6,26.68,4.47a3.86,3.86,0,0,1,2.12,1,3.58,3.58,0,0,1,1,2.78,4,4,0,0,1-1.14,2.78,3.05,3.05,0,0,1-3,.81L487,434.22l2.34,27.61a3.56,3.56,0,0,1-1,3,3.36,3.36,0,0,1-2.42,1,3.29,3.29,0,0,1-2.48-1,4.22,4.22,0,0,1-1.14-2.67l-2.29-29.07-25.1-4.3a3.45,3.45,0,0,1-2-1,3.59,3.59,0,0,1-1.06-2.85,4.06,4.06,0,0,1,1.17-2.81,3.06,3.06,0,0,1,2.88-.82l23.74,4.36-2.18-26A3.56,3.56,0,0,1,478.35,396.65Z" transform="translate(-193.27 -109.6)"/><path class="cls-2" d="M498,386.75l11.11,13.06,16.17-16.17a3.66,3.66,0,0,1,2.4-1.2,2.92,2.92,0,0,1,2.23.93,3.15,3.15,0,0,1,1.06,2.48,4.14,4.14,0,0,1-1.39,2.64l-16.22,16.22L525,418.43l17.26-17.26a3.8,3.8,0,0,1,2.45-1.25,2.87,2.87,0,0,1,2.23.93,3.06,3.06,0,0,1,1,2.42,4.26,4.26,0,0,1-1.44,2.7l-20.09,20.09a3.24,3.24,0,0,1-5.34-.22l-30.33-35.56a3.82,3.82,0,0,1-1.17-2.8,4.27,4.27,0,0,1,1.39-2.75L511,364.64a3.64,3.64,0,0,1,2.4-1.2,2.89,2.89,0,0,1,2.23.93q2.34,2.34-.38,5.06Z" transform="translate(-193.27 -109.6)"/><path class="cls-2" d="M581.91,363.88a3.92,3.92,0,0,1,1.53.87,3.16,3.16,0,0,1,.92,2.67,4.29,4.29,0,0,1-1.25,2.67,4,4,0,0,1-1.85,1A3.87,3.87,0,0,1,579,371l-16.77-5.34a9.21,9.21,0,0,0-5.17-.33,10.51,10.51,0,0,0-4.47,2.89l-6.15,6.15,12.36,14.43a3.84,3.84,0,0,1,1.12,2.86,4.21,4.21,0,0,1-1.34,2.8,3.72,3.72,0,0,1-2.77,1.26,3.82,3.82,0,0,1-2.73-1.53l-30.43-35.66a3.82,3.82,0,0,1-1.17-2.86,4.14,4.14,0,0,1,1.33-2.75l13.61-13.61q5.88-5.88,11.82-6.37t10.94,4.52q5,5,5.31,10.59t-4.33,11.51a7.54,7.54,0,0,1,3.54-.76,18,18,0,0,1,4.52.87Zm-29.07-5q4.24-4.25,4.57-8.17t-3.32-7.57q-3.21-3.21-6.59-2.88t-7.13,4.08L529.81,354.9l12.47,14.53Z" transform="translate(-193.27 -109.6)"/><path class="cls-2" d="M619.48,326.31a3.88,3.88,0,0,1,1.52.87,3.13,3.13,0,0,1,.93,2.67,4.34,4.34,0,0,1-1.25,2.67,3.87,3.87,0,0,1-4.14.87l-16.77-5.34a9.3,9.3,0,0,0-5.17-.32,10.57,10.57,0,0,0-4.47,2.88L584,336.76l12.36,14.43a3.85,3.85,0,0,1,1.12,2.86,4.19,4.19,0,0,1-1.34,2.8,3.7,3.7,0,0,1-2.77,1.26,3.82,3.82,0,0,1-2.73-1.53l-30.43-35.66a3.82,3.82,0,0,1-1.17-2.86,4.17,4.17,0,0,1,1.33-2.75L574,301.7q5.88-5.88,11.82-6.37t10.94,4.52q5,5,5.31,10.59T597.7,322a7.66,7.66,0,0,1,3.54-.76,18.13,18.13,0,0,1,4.52.87Zm-29.07-5q4.25-4.24,4.57-8.17t-3.32-7.56q-3.21-3.22-6.59-2.89t-7.13,4.08l-10.57,10.57,12.47,14.53Z" transform="translate(-193.27 -109.6)"/><rect class="cls-3" x="357.23" y="354.05" width="160.7" height="9.55" rx="4.77" transform="translate(-318.83 304.92) rotate(-45)"/><rect class="cls-4" x="476.15" y="472.97" width="160.7" height="9.55" rx="4.77" transform="translate(-368.09 423.84) rotate(-45)"/></svg>