<svg id="Layer_1" data-name="Layer 1" xmlns="http://www.w3.org/2000/svg" xmlns:xlink="http://www.w3.org/1999/xlink" viewBox="0 0 618.87 617.38"><defs><style>.cls-1{fill:#fff;}.cls-2{fill:url(#linear-gradient);}.cls-3{fill:url(#linear-gradient-8);}.cls-4{fill:url(#linear-gradient-9);}</style><linearGradient id="linear-gradient" x1="372.52" y1="408.51" x2="650.35" y2="408.51" gradientUnits="userSpaceOnUse"><stop offset="0" stop-color="#2e3192"/><stop offset="1" stop-color="#ed1e79"/></linearGradient><linearGradient id="linear-gradient-8" x1="166.67" y1="375.31" x2="327.37" y2="375.31" gradientTransform="translate(190.56 -16.49)" xlink:href="#linear-gradient"/><linearGradient id="linear-gradient-9" x1="166.67" y1="543.49" x2="327.37" y2="543.49" gradientTransform="translate(309.48 -65.74)" xlink:href="#linear-gradient"/></defs><title>icon</title><path class="cls-1" d="M762.76,304.91c-12-12.08-29.13-7.08-29.13-7.08l0,0c-19.79,4.19-53.41,5.25-81-24.35l-2.07-2.1c-34.25-34.38-32-71.75-27.25-91.61,1.9-13.93-3.18-21.84-5.87-24.93l-5.28-5.3c-10.89-10.94-23.35-.39-26.62,2.75L558.6,179.06l-19.86,19.79-266.09,265-7.23,7.2-33.12,33c-10.52,10.47-2.7,19.58-2.7,19.58l15.63,15.69a17.31,17.31,0,0,0,16.68,3.36h0c17.78-6.84,58.37-16.53,93.53,18.8l6.87,6.89c28.9,28.42,21.43,65.44,14.59,84.77a.08.08,0,0,0,0,.08,25.86,25.86,0,0,0,4.65,23.18l11.32,11.35s10.43,11.19,24.85-3.19L448,654.41l13.41-13.34L735.94,367.6l5.23-5.22,27.59-27.45c4-4.84,8.87-14.64-3.34-27.36Z" transform="translate(-193.27 -109.6)"/><path class="cls-1" d="M767.69,273.14c-13.85-13.89-35.15-2.56-35.15-2.56l-.06,0a61,61,0,0,1-79.68-80.1,4.76,4.76,0,0,1,.19-.57c8-21.2-3.4-35.13-6.76-38.65l-34.52-34.68c-15.09-15.14-31.45-1.37-35.46,2.47L203.52,490.28c-20.71,20.59-3.63,37-3.63,37l40,40.16s9.87,10.67,29,2.94c.62-.24,1.07-.35,1.62-.52a60.87,60.87,0,0,1,82.77,78.2h0s-11.61,21.59,2.38,35.63l35,35.17c2.51,2.45,20.9,19,43.89-3.87L804.88,346.18c5.62-6.5,14.32-21.31-2.83-38.54Zm-7.19,66.14L733.67,366l-5.09,5.08-267,266-13,13-29.46,29.34c-14,14-24.17,3.1-24.17,3.1l-11-11a25.17,25.17,0,0,1-4.52-22.55.07.07,0,0,1,0-.07c6.65-18.8,13.92-54.8-14.19-82.44l-6.68-6.7c-34.19-34.36-73.67-24.94-91-18.28h0a16.84,16.84,0,0,1-16.22-3.27l-15.2-15.26s-7.61-8.86,2.62-19L271,471.7l7-7L536.8,207l19.31-19.25,26.18-26.07c3.17-3.06,15.29-13.32,25.88-2.67l5.13,5.15c2.63,3,7.57,10.7,5.72,24.24-4.58,19.32-6.81,55.66,26.49,89.09l2,2.05c26.83,28.79,59.52,27.75,78.77,23.68l0,0s16.65-4.86,28.34,6.89l2.58,2.58C769.12,325.05,764.43,334.58,760.5,339.28Z" transform="translate(-193.27 -109.6)"/><path class="cls-2" d="M390.94,488.06l20.39-20.39,4,5.93-14.57,14.57,8.45,12.58,12.35-12.35,4,5.93-12.3,12.3,12.13,18.27-5.88,5.89Z" transform="translate(-193.27 -109.6)"/><path class="cls-2" d="M417.57,461.43l5.88-5.88L448,492.36l14.24-14.25,4,5.93-20.13,20.12Z" transform="translate(-193.27 -109.6)"/><path class="cls-2" d="M443.76,435.24l5.88-5.88,28.48,42.73L472.24,478Z" transform="translate(-193.27 -109.6)"/><path class="cls-2" d="M478.46,435l-22.89-11.52L462,417l10.69,5.9c2.07,1.2,4.12,2.48,6.67,3.92l.17-.17c-.71-3.19-1.34-6.24-1.94-8.91l-2.76-13.57,6.25-6.25L486,428.11,510.19,440l-6.47,6.47-11.48-6.25c-2.33-1.28-4.67-2.58-7.2-4.07l-.18.17c.69,3.35,1.37,6.56,2,9.54l2.81,14.66-6.25,6.25Z" transform="translate(-193.27 -109.6)"/><path class="cls-2" d="M487.15,391.85l20.38-20.38,4,5.92L496.93,392l7.71,11.5L517,391.11l4,5.92-12.31,12.31,8.87,13.48,15-15.05,4,5.92-20.89,20.89Z" transform="translate(-193.27 -109.6)"/><path class="cls-2" d="M515.19,363.81l10.48-10.48c6.81-6.81,14.06-9.23,20.36-2.94,8.67,8.67,5.75,19.91-2.38,28l-5.37,5.38,11.28,16.86-5.88,5.88Zm23.94,9.78c6-6,6.38-12.09,1.91-16.55-3.44-3.45-7.27-2.44-11.8,2.09l-4.47,4.46,9.8,14.55Zm2.67,4.11.68-8,26.57,11.46-6.23,6.22Z" transform="translate(-193.27 -109.6)"/><path class="cls-2" d="M546.55,332.45,557,322c6.81-6.81,14.07-9.23,20.36-2.94,8.67,8.67,5.75,19.91-2.37,28l-5.38,5.38,11.28,16.86L575,375.18Zm23.94,9.78c6-6,6.38-12.09,1.91-16.56-3.44-3.44-7.27-2.43-11.8,2.1l-4.47,4.46,9.8,14.55Zm2.67,4.11.68-8,26.57,11.45L594.18,356Z" transform="translate(-193.27 -109.6)"/><rect class="cls-3" x="357.23" y="354.05" width="160.7" height="9.55" rx="4.77" transform="translate(-318.83 304.92) rotate(-45)"/><rect class="cls-4" x="476.15" y="472.97" width="160.7" height="9.55" rx="4.77" transform="translate(-368.09 423.84) rotate(-45)"/></svg>